<svg width="151" height="71" viewBox="0 0 151 71" fill="none" xmlns="http://www.w3.org/2000/svg">
<g clipPath="url(#clip0)">
<path d="M67.9178 62.2379C71.3986 62.2379 74.2204 59.4162 74.2204 55.9354C74.2204 52.4546 71.3986 49.6328 67.9178 49.6328C64.437 49.6328 61.6152 52.4546 61.6152 55.9354C61.6152 59.4162 64.437 62.2379 67.9178 62.2379Z" fill="white"/>
<path d="M88.1105 49.5721C84.6128 49.2279 81.4983 51.7842 81.1541 55.282C80.8099 58.7797 83.3663 61.8942 86.864 62.2384C87.2785 62.2792 87.6961 62.2792 88.1105 62.2384C91.6083 61.8942 94.1646 58.7797 93.8204 55.282C93.5231 52.2601 91.1323 49.8694 88.1105 49.5721Z" fill="white"/>
<path d="M101.083 25.5854C100.77 25.1165 100.24 24.8397 99.6758 24.8511H92.7001V24.7287C92.7006 17.3277 86.7013 11.3276 79.3004 11.3271C71.8995 11.3267 65.8994 17.3259 65.8989 24.7269C65.8989 24.7275 65.8989 24.7281 65.8989 24.7287V24.8511H60.6978L58.9233 16.774C58.7262 15.9524 57.9937 15.3714 57.1487 15.3666H49.5V19.038H55.6802L61.3709 45.1662C61.5211 46.0252 62.2734 46.6477 63.1454 46.6347H95.1477C95.9927 46.6298 96.725 46.049 96.9222 45.2273L101.45 27.1151C101.583 26.5758 101.446 26.0056 101.083 25.5854ZM79.2995 34.4579C73.9263 34.4579 69.5703 30.102 69.5703 24.7287C69.5703 19.3555 73.9263 14.9995 79.2995 14.9995C84.6728 14.9995 89.0287 19.3555 89.0287 24.7287C88.9954 30.0881 84.6589 34.4244 79.2995 34.4579Z" fill="white"/>
<path d="M77.8306 24.9123L74.4652 21.4857L71.834 24.0556L76.4844 28.7673C76.8234 29.1131 77.2852 29.311 77.7694 29.318C78.2473 29.3414 78.7132 29.1639 79.0544 28.8285L86.7643 21.5469L84.2556 18.8545L77.8306 24.9123Z" fill="white"/>
</g>
<defs>
<clipPath id="clip0">
<rect width="52" height="52" fill="white" transform="translate(49.5 10.7979)"/>
</clipPath>
</defs>
</svg>
