<svg width="150" height="71" viewBox="0 0 150 71" fill="none" xmlns="http://www.w3.org/2000/svg">
<g clipPath="url(#clip0)">
<path d="M115.522 52.8058C115.522 53.3195 115.234 53.7801 114.784 54.0104C114.37 54.223 113.867 54.223 113.471 53.9927L108.363 51.1229C108.183 51.0166 108.022 50.8926 107.896 50.7331C107.536 50.308 107.41 49.7411 107.572 49.2097L108.129 47.1548C108.237 46.7828 108.489 46.4816 108.831 46.3045C109.227 46.1096 109.676 46.0033 110.126 46.0033H114.137C114.442 46.0033 114.748 46.1096 115 46.3045L115.072 46.3576C115.378 46.6056 115.558 46.9953 115.558 47.3851L115.522 52.8058ZM87.1043 57.5002L84.964 58.4745C84.5863 58.6517 84.1547 58.7402 83.741 58.7402C83.5432 58.7402 83.3633 58.7225 83.1655 58.6871C82.4101 58.5454 81.7626 58.1202 81.313 57.5002L77.7158 52.3983C77.464 52.044 77.3741 51.6012 77.446 51.176C77.554 50.6446 77.9137 50.184 78.4173 49.9714L78.5611 49.9006C78.741 49.8297 78.9568 49.7766 79.1547 49.7766L82.446 49.6703C82.464 49.6703 82.482 49.6703 82.5 49.6703C83.0216 49.6703 83.4892 49.9006 83.8129 50.308L87.6619 55.1618C87.8777 55.4276 87.9856 55.7642 87.9856 56.1184C88.0036 56.703 87.6439 57.2522 87.1043 57.5002ZM74.5144 61.5215L72.3201 62.4958C72.1223 62.5843 71.9245 62.6198 71.7086 62.6198C71.5288 62.6198 71.3489 62.5843 71.1691 62.5135C70.9352 62.4249 70.7374 62.2478 70.6115 62.0352L64.2626 51.3532C64.1187 51.1229 64.1547 50.8394 64.3165 50.6269L64.3345 50.6091C64.4604 50.4674 64.6223 50.3966 64.8201 50.3966H68.9748L68.9209 51.1052C68.9029 51.4417 68.8129 51.7783 68.6511 52.0972L68.3993 52.6109C68.3633 52.6818 68.3453 52.7526 68.3453 52.8412C68.3453 53.1246 68.5791 53.3549 68.8669 53.3549H69.4065V53.7801C69.4065 53.9395 69.5324 54.0812 69.7122 54.0812H70.7014C70.7734 54.0812 70.8453 54.1167 70.8993 54.1875L74.8201 60.5117C74.8921 60.618 74.9281 60.7597 74.9281 60.8837C74.946 61.1495 74.7842 61.4152 74.5144 61.5215ZM63.0935 47.1193C62.5719 47.1193 62.1403 46.6942 62.1403 46.1804V44.0015C62.1403 43.4878 62.5719 43.0626 63.0935 43.0626H66.4928C67.0144 43.0626 67.446 43.4878 67.446 44.0015V46.1804C67.446 46.6942 67.0144 47.1193 66.4928 47.1193H63.0935ZM119.622 43.6649L117.968 42.0352C117.716 41.7872 117.392 41.6632 117.05 41.6632H90.4316C90.2338 41.6632 90.036 41.5746 89.9101 41.4152L89.6583 41.114L89.3165 40.7597C89.1547 40.6003 88.9209 40.5117 88.687 40.5117H84.9101C84.2806 40.5117 83.6331 40.4231 83.0396 40.2283L76.9245 38.3505C76.6367 38.2619 76.3309 38.2088 76.0252 38.2088H72.7878C72.6259 38.2088 72.482 38.3328 72.482 38.5099V38.8997H71.7446V37.3939C71.7446 36.827 71.277 36.3665 70.7014 36.3665H69.8381C69.5504 36.3665 69.2986 36.4727 69.1007 36.6853L67.6259 38.1734C67.3921 38.4214 67.2482 38.7402 67.2482 39.0768V39.5728H52.0863C51.9245 39.5728 51.7626 39.5374 51.6187 39.4665L50.5755 38.9705C50.1259 38.758 49.6583 38.6517 49.1547 38.6517H43.0935C43.0576 38.6517 43.0036 38.6517 42.9676 38.6339L41.6727 38.2088C41.5647 38.1734 41.4748 38.1556 41.3669 38.1556H39.9101L39.4964 37.6596C39.3525 37.4825 39.1187 37.3762 38.8849 37.3762H37.7518C37.446 37.3762 37.2122 37.6242 37.2122 37.9076V38.4745L36.7086 38.8111C36.4209 39.006 36.241 39.3425 36.241 39.6968V40.1574C36.241 40.3169 36.1151 40.4409 35.9532 40.4409H35.0719C34.964 40.4409 34.8741 40.494 34.8201 40.5826L34.3705 41.3443C34.3525 41.3975 34.3345 41.4329 34.3345 41.486V41.9998H34.0288C33.9029 41.9998 33.795 42.0529 33.705 42.1238L33.3273 42.4958C33.2374 42.5843 33.2014 42.6906 33.2014 42.8146V43.9661C33.2014 44.0901 33.2554 44.1964 33.3273 44.285L33.6151 44.5684C33.705 44.657 33.8129 44.6924 33.9388 44.6924H34.3525V44.8518H31.6727C31.3309 44.8518 30.9892 44.9936 30.7554 45.2239C30.2698 45.6844 30 46.3399 30 47.013V49.3868C30 50.0423 30.2698 50.68 30.7374 51.1583L30.8094 51.2292C31.0612 51.4772 31.4029 51.6189 31.7446 51.6189H35.3777C35.7734 51.6189 36.0971 51.3 36.0971 50.9103V50.68H37.1403C37.4281 50.68 37.6978 50.7863 37.8957 50.9812L39.3705 52.3806C39.4245 52.4338 39.4784 52.5223 39.4784 52.6109V54.9493C39.4784 55.2681 39.6043 55.5693 39.8201 55.8173L40.1619 56.1716C40.4137 56.4373 40.7554 56.5967 41.1151 56.5967H42.482C42.7698 56.5967 43.0576 56.4905 43.2734 56.3133L44.0108 55.6756C44.2446 55.4807 44.5504 55.3567 44.8741 55.3567C44.9101 55.3567 44.9281 55.3567 44.964 55.3567L61.6727 56.4905C62.6079 56.5436 63.4892 57.0573 63.9928 57.8545L68.6331 64.9581C69.1007 65.6667 69.8741 66.0919 70.7194 66.1096C71.0432 66.1982 71.3849 66.2336 71.7086 66.2336C72.2482 66.2336 72.7698 66.1273 73.2554 65.9324L103.741 55.3921C104.424 55.1618 105.144 55.0556 105.863 55.0733H105.989C106.691 55.1087 107.392 55.2681 108.058 55.5516L115.162 58.6339C115.324 58.7048 115.504 58.7402 115.683 58.7402H118.417C118.759 58.7402 119.083 58.5985 119.335 58.3682L119.622 58.0671C119.856 57.8191 120 57.5002 120 57.1636V44.5861C120 44.2495 119.856 43.913 119.622 43.6649Z" fill="white"/>
<path d="M97.464 28.5544L95.3058 29.5464C94.9101 29.7235 94.4964 29.8121 94.0647 29.8121C93.8669 29.8121 93.687 29.7944 93.4892 29.759C92.7338 29.6173 92.0683 29.1744 91.6367 28.5544L88.0036 23.3816C87.7518 23.0273 87.6439 22.5845 87.7338 22.1416C87.8417 21.5924 88.2014 21.1319 88.705 20.9193L88.8489 20.8661C89.0288 20.7776 89.2446 20.7421 89.4424 20.7421L92.7698 20.6358C92.7878 20.6358 92.8058 20.6358 92.8237 20.6358C93.3453 20.6358 93.8309 20.8661 94.1547 21.2736L98.0396 26.1806C98.2554 26.4463 98.3813 26.8006 98.3813 27.1372C98.3633 27.7395 98.0216 28.2886 97.464 28.5544ZM84.7842 32.6288L82.5719 33.6031C82.3741 33.6917 82.1763 33.7271 81.9604 33.7271C81.7806 33.7271 81.5827 33.6917 81.4209 33.6208C81.1871 33.5322 80.9892 33.3551 80.8453 33.1425L74.4424 22.3365C74.2986 22.1062 74.3345 21.805 74.5144 21.6102L74.5324 21.5924C74.6583 21.4507 74.8201 21.3622 75.018 21.3622H79.2086L79.1547 22.0707C79.1367 22.425 79.0468 22.7616 78.8849 23.0805L78.6331 23.6119C78.5971 23.6828 78.5791 23.7537 78.5791 23.8422C78.5791 24.1257 78.813 24.3737 79.1007 24.3737H79.6583V24.8165C79.6583 24.976 79.8022 25.1177 79.964 25.1177H80.9532C81.0252 25.1177 81.1151 25.1531 81.1511 25.224L85.1079 31.619C85.1799 31.7253 85.2158 31.867 85.2158 31.991C85.2158 32.2568 85.036 32.5048 84.7842 32.6288ZM73.2554 18.0495C72.7338 18.0495 72.3022 17.6243 72.3022 17.0929V14.8963C72.3022 14.3648 72.7338 13.9397 73.2554 13.9397H76.6906C77.2302 13.9397 77.6439 14.3648 77.6439 14.8963V17.0929C77.6439 17.6243 77.2122 18.0495 76.6906 18.0495H73.2554ZM110.63 14.6128L108.633 12.5402C108.327 12.239 107.914 12.0442 107.482 12.0442H100.216C100.144 12.0442 100.072 12.0087 100.018 11.9556L99.6583 11.6013C99.4964 11.4419 99.2626 11.3356 99.0288 11.3356H95.2158C94.5683 11.3356 93.9389 11.247 93.3273 11.0521L87.1763 9.15666C86.8885 9.06809 86.5827 9.01495 86.277 9.01495H83.0216C82.8597 9.01495 82.7158 9.15666 82.7158 9.3161V9.74125H81.9604V8.21778C81.9604 7.63319 81.4928 7.17261 80.9173 7.17261H80.054C79.7662 7.17261 79.4964 7.2789 79.2986 7.49147L77.8058 9.01495C77.554 9.26295 77.4281 9.58182 77.4281 9.93612V10.4498H62.1403C61.9784 10.4498 61.8166 10.4144 61.6547 10.3436L60.5935 9.84754C60.1439 9.63496 59.6583 9.52867 59.1547 9.52867H53.0755C53.0396 9.52867 53.0036 9.52867 52.9496 9.51096L51.6367 9.0858C51.5288 9.05038 51.4389 9.03266 51.3309 9.03266H49.8741L49.4784 8.50122C49.3166 8.30635 49.0827 8.20007 48.8489 8.20007H47.6978C47.3921 8.20007 47.1583 8.44807 47.1583 8.74922V9.3161L46.6547 9.63496C46.3489 9.82983 46.1691 10.1664 46.1691 10.5207V10.999C46.1691 11.1584 46.0432 11.2824 45.8813 11.2824H45C44.8921 11.2824 44.7842 11.3356 44.7482 11.4242L44.2806 12.2036C44.2626 12.2568 44.2446 12.3099 44.2446 12.363V12.8768H43.9568C43.8309 12.8768 43.723 12.9299 43.6331 13.0008L43.2554 13.3728C43.1655 13.4614 43.1295 13.5854 43.1295 13.6917V14.8431C43.1295 14.9671 43.1835 15.0734 43.2554 15.162L43.5432 15.4454C43.6331 15.5517 43.741 15.5871 43.8669 15.5871H44.2986V15.7643H41.6007C41.241 15.7643 40.9173 15.906 40.6655 16.1363C40.1619 16.6146 39.8921 17.27 39.8921 17.9432V20.3524C39.8921 21.0256 40.1619 21.6633 40.6295 22.1416L40.7014 22.2125C40.9532 22.4605 41.295 22.6022 41.6547 22.6022H45.3237C45.7194 22.6022 46.0432 22.2833 46.0432 21.8936V21.6456H47.0863C47.3741 21.6456 47.6439 21.7519 47.8597 21.9467L49.3525 23.3639C49.4245 23.4171 49.4604 23.5056 49.4604 23.5942V25.9503C49.4604 26.2692 49.5863 26.588 49.8022 26.8183L50.1439 27.1903C50.3957 27.456 50.7374 27.6155 51.0971 27.6155H52.482C52.7698 27.6155 53.0576 27.5092 53.2734 27.3143L54.0288 26.6766C54.2626 26.464 54.5863 26.3577 54.8921 26.3577C54.9281 26.3577 54.946 26.3577 54.982 26.3577L71.8345 27.5092C72.7878 27.58 73.6691 28.0938 74.1907 28.8909L78.8669 36.0832C79.3345 36.7917 80.1079 37.2169 80.9712 37.2346C81.295 37.3232 81.6367 37.3586 81.9784 37.3586C82.518 37.3586 83.0396 37.2523 83.5432 37.0575L103.921 28.9264C104.299 28.7847 104.676 28.6961 105.072 28.6961C105.108 28.6961 105.126 28.6961 105.162 28.6961L109.029 28.8201C109.047 28.8201 109.083 28.8201 109.101 28.8201C109.388 28.8201 109.676 28.7669 109.91 28.6607C110.63 28.3418 111.097 27.6332 111.097 26.8537V15.7289C111.079 15.3037 110.917 14.914 110.63 14.6128Z" fill="white"/>
</g>
<defs>
<clipPath id="clip0">
<rect width="90" height="60" fill="white" transform="translate(30 6.19824)"/>
</clipPath>
</defs>
</svg>
