
<svg 
version="1.1" 
id="Слой_1" 
xmlns="http://www.w3.org/2000/svg" 
xmlns:xlink="http://www.w3.org/1999/xlink" 
x="0px" 
y="0px"
width="150" 
height="71"
	 viewBox="0 0 414 537.2" style="enable-background:new 0 0 414 537.2;" xml:space="preserve">
<style type="text/css">
	.st0{fill:#FFFFFF;}
</style>
<g>
	<path class="st0" d="M325.4,282.5c-7.3-2.5-3.8-1.1-10.2-3.4c-6.8-2.4-9.5-6.8-7.5-12.2c1.8-5,6.7-6.7,13.3-4.5
		c13.6,4.5,17.2,5.6,30.9,10c3.7,1.2,6.4,3.1,8.5,6.3c12.3,18,24.8,35.9,37.1,53.9c4.3,6.2,3,11.3-3.7,14.8
		c-9.2,4.8-18.3,9.6-27.7,14c-4.1,1.9-5.5,4.4-5.5,8.8c0.2,21.4-0.1,42.9,0.2,64.3c0.1,7.4-2.3,12-9.2,15.4
		c-44.6,22.1-89.1,44.5-133.6,66.9c-4.6,2.3-8.9,2.2-13.5,0c-48.1-22.8-96.3-45.5-144.4-68.1c-5.4-2.5-7.1-6.7-7.1-12.3
		c0.1-21.6-0.1-43.3,0.1-64.9c0-4.8-1.4-7.5-6-9.5c-10.3-4.4-20.4-9.5-30.6-14.3c-8-3.8-9.3-9.3-4-16.1
		c13.6-17.7,27.3-35.4,40.8-53.2c2.2-2.9,4.7-4.8,8.2-5.9c14.5-4.7,20.2-6.8,34.7-11.6c6.3-2.1,11.2,0.1,12.8,5.4
		c1.5,5.1-1.1,9.3-7.3,11.4c-7,2.4-5.2,1.9-13.8,4.8c8.7,3.7,16,6.9,23.2,9.9c31.7,13.1,63.5,26.1,95.2,39.3c3.7,1.6,7,1.1,10.5-0.5
		c33.1-14.5,66.2-29,99.3-43.6C318.9,286.4,322.2,285.8,325.4,282.5z M201.2,374.4c-8.5,12.8-16.6,25-24.9,37.2
		c-4.8,7.1-8,8-15.6,4.4c-27.9-13.2-55.8-26.4-83.7-39.6c-5.8-2.8-6.4-2.5-6.4,4c0,15.8,0.2,31.6,0,47.4c-0.1,5,1.7,7.4,6.1,9.5
		c39.5,18.5,78.9,37.1,118.4,55.7c6.8,3.2,7.3,2.9,7.3-4.4c0-36,0-72,0-108C202.3,378.8,202.8,376.9,201.2,374.4z M221,370.3
		c-0.5,1-0.8,1.3-0.8,1.6c-0.1,39.8-0.1,79.6-0.1,119.4c0,4.4,2.1,3.6,4.8,2.3c38-19,76.1-38.1,114.1-57c2.8-1.4,4-3.3,3.9-6.4
		c-0.1-16.9,0.1-33.8-0.1-50.7c0-6.1-0.7-6.3-6.1-3.6c-23.3,11.8-46.7,23.6-70.1,35.4c-8,4-10.8,3.3-16.3-3.7
		C240.7,395.2,231,383,221,370.3z M162.6,397c2.5,0.1,3.3-1.7,4.3-3.2c9.5-14.2,18.9-28.5,28.5-42.6c2.1-3.1,1.2-4.4-1.8-5.6
		c-5.2-2.1-10.4-4.3-15.6-6.5c-35.9-14.8-71.9-29.6-107.8-44.5c-3-1.2-5.4-2.2-8,1.3c-8.7,11.7-17.5,23.2-26.6,34.6
		c-3.2,4-2.6,5.8,1.9,7.9c40.7,18.9,81.3,38.1,121.9,57.1C160.5,396.1,161.7,396.6,162.6,397z M346.6,293.8
		c-0.9,0.3-2.3,0.8-3.6,1.4c-37.6,16.5-75.1,33-112.8,49.3c-4.4,1.9-4.3,3.5-1.5,7c9.8,12.1,19.6,24.3,28.9,36.8
		c3.4,4.5,6.2,4.7,10.9,2.3c24.1-12.3,48.3-24.3,72.5-36.4c10.7-5.4,21.4-10.7,32.1-16.1c2.8-1.4,5.1-2.6,2.4-6.5
		c-8.4-11.7-16.4-23.5-24.6-35.3C349.9,295,349.1,293.5,346.6,293.8z"/>
</g>
<path class="st0" d="M157.7,273.9l45.4,34c3.2,2.3,7.5,2.3,10.7,0.1l44.8-34c0,0,0.1-0.1,0.1-0.1c0.9-1.1,2.4-1.5,4.5-1.5
	c7,0.1,14.1,0.2,21.1-0.1c7.3-0.3,10.4-3.7,10.7-10.9c0.2-7.3-0.7-14.4-2.8-21.5c-4.2-13.8-11.5-25.7-21-36.3
	c-3.2-3.6-4.2-7.3-3.5-11.9c1.5-10.2,2.6-20.5,2.2-28.7c0.5-40.8-12.5-85.7-33.5-118.3c-5.8-9.1-11.9-18-19.2-25.9
	c-6.4-7-11.4-6.9-17.9-0.2c-1,1-2,2.1-2.9,3.2c-39.9,49.8-55.6,106.6-48,169.8c0.6,4.6-0.9,9.3-3.9,12.8
	c-13.6,15.7-22.7,33.5-23.4,54.9c-0.3,9.1,3.1,13,12.3,13.1c6.6,0.1,13.3,0.1,19.9,0C155.4,272.4,157.7,273.9,157.7,273.9 M187,67.8
	c5.4-10.2,11.6-19.9,18.6-29c2.1-2.8,4-2.2,5.8,0.3c6.6,8.8,12.6,18.1,17.8,27.8c2.1,4,0.3,5.4-3.5,5.4c-6.1,0-12.2,0-18.4,0
	c-5.9,0-11.8,0-17.6,0C186.1,72.3,185.3,71,187,67.8z M208.2,237.6c-12.3,0-22-9.9-21.9-22.2c0.1-12.8,9.2-21.8,22-21.7
	c12.6,0,22,9.1,22,21.1C230.3,227.6,220.5,237.7,208.2,237.6z M208,184c-12.5-0.1-21.8-9.5-21.9-22.1c-0.1-12.1,9.8-21.8,22.2-21.8
	c12.5,0,22.1,9.7,22,22C230.2,174.5,220.3,184.2,208,184z M208.3,130.8c-12.5,0-22-9.6-22-22c0-12.3,9.7-22.1,22-22.1
	c12.2,0,22.1,9.9,22.1,22.1C230.3,121.3,220.7,130.8,208.3,130.8z"/>
</svg>
