<svg width="150" height="71" viewBox="0 0 150 71" fill="none" xmlns="http://www.w3.org/2000/svg">
<path d="M34.1719 22.4644V25.8258L38.9339 26.9463L41.9452 32.6188L41.1749 38.6414L44.2562 44.0337L52.6599 48.1655L51.6094 50.7566L53.5703 54.6783V63.0819L56.4415 66.3033V61.8214L62.9543 56.4991L63.3745 52.4373L55.0409 46.7649H50.699L47.6877 40.8823H49.9287L54.5507 36.6105L59.3127 34.0894L55.8813 28.9772L53.2201 31.9185L50.699 28.9772L54.5507 25.8258L53.2201 22.9546L50.699 23.7949L38.4437 18.1925L34.1719 22.4644Z" fill="white"/>
<path d="M61.7988 20.1884L59.8029 18.1925L68.1365 15.3213L70.1674 17.7023L68.4867 25.8258L61.7988 29.3273V20.1884Z" fill="white"/>
<path d="M82.2126 38.6414L82.5628 40.8823L75.2796 40.2521L70.1674 41.5826L68.4867 46.7649L71.498 49.1459L76.19 48.1655L76.7503 54.6783L77.5206 59.3703L81.2322 59.7905L87.605 47.8153L86.4144 45.3643L89.2157 44.0337L86.9747 40.8823L87.9551 40.2521L91.5266 42.7031L94.748 46.7649L97.1291 44.0337L101.331 45.7844L101.681 43.6135H104.272L106.163 41.5826L105.042 38.6414L107.984 36.6105L109.314 31.9185L107.494 30.0977V28.0668L110.995 25.8258L114.707 28.487V21.0638L112.606 18.8928L96.1486 21.0638V18.8928L90.6163 20.1884L83.2631 27.3665L78.9212 25.1956L74.7194 29.6775L75.2796 31.9185L73.1087 34.5796L71.0078 35.9802L71.498 37.801L76.19 35.9802L78.9212 37.801L82.2126 38.6414Z" fill="white"/>
<path d="M105.673 55.4486L104.762 59.7905L109.314 60.5608L110.505 63.0819L113.586 61.8214L115.827 58.3199L113.866 54.2581L112.606 55.4486L111.345 54.6783L109.805 53.2777L105.673 55.4486Z" fill="white"/>
<path d="M86.6514 31.2661L86.6546 31.2696C87.0994 31.7505 87.7291 32.0284 88.3916 32.0284C89.0541 32.0284 89.6838 31.7505 90.1286 31.2696L90.1318 31.2661C90.5739 30.7836 92.7136 28.4163 94.7487 25.5605C95.7657 24.1333 96.772 22.5628 97.5278 21.0293C98.2725 19.5185 98.8271 17.9393 98.8271 16.5234C98.8271 10.8606 94.1261 6.29297 88.3916 6.29297C82.6571 6.29297 77.9561 10.8606 77.9561 16.5234C77.9561 17.9393 78.5107 19.5185 79.2554 21.0293C80.0112 22.5628 81.0175 24.1333 82.0345 25.5605C84.0696 28.4163 86.2093 30.7836 86.6514 31.2661ZM88.3916 19.4793C86.6909 19.4793 85.3478 18.1342 85.3478 16.5234C85.3478 14.9126 86.6909 13.5675 88.3916 13.5675C90.0923 13.5675 91.4354 14.9126 91.4354 16.5234C91.4354 18.1342 90.0923 19.4793 88.3916 19.4793Z" fill="white" stroke="#0090FF" strokeWidth="2"/>
</svg>
